<svg xmlns="http://www.w3.org/2000/svg" version="1.1" xmlns:xlink="http://www.w3.org/1999/xlink" xmlns:svgjs="http://svgjs.dev/svgjs" width="1000" height="1000" viewBox="0 0 1000 1000"><rect width="1000" height="1000" fill="#ffffff"></rect><g transform="matrix(0.43370508054522927,0,0,0.43370508054522927,282.7444170788997,150.2834027738777)"><svg viewBox="0 0 153 247" data-background-color="#ffffff" preserveAspectRatio="xMidYMid meet" height="1614" width="1000" xmlns="http://www.w3.org/2000/svg" xmlns:xlink="http://www.w3.org/1999/xlink"><g id="tight-bounds" transform="matrix(1,0,0,1,0.14218308243192723,-0.09999930693174974)"><svg viewBox="0 0 152.71562715435752 247.2" height="247.2" width="152.71562715435752"><g><svg viewBox="0 0 259.08461538461535 419.37893401271" height="247.2" width="152.71562715435752"><g><svg viewBox="0 0 259.08461538461535 247.2" height="247.2" width="259.08461538461535"><g id="textblocktransform"><svg viewBox="0 0 259.08461538461535 247.2" height="247.2" width="259.08461538461535" id="textblock"><g><svg viewBox="0 0 259.08461538461535 247.2" height="247.2" width="259.08461538461535"><g transform="matrix(1,0,0,1,0,0)"><svg width="259.08461538461535" viewBox="20.299999237060547 -38.29999923706055 87.19999694824219 80.20000457763672" height="247.2" data-palette-color="#3c8ff5"><svg></svg><svg></svg><g class="wordmark-text-0" data-fill-palette-color="primary" id="text-0"><path xmlns="http://www.w3.org/2000/svg" d="M29.7 0.3v0c-2.133 0-3.89-0.4-5.27-1.2-1.387-0.8-2.42-1.9-3.1-3.3-0.687-1.4-1.03-2.983-1.03-4.75v0-5.7c0-1.733 0.333-3.31 1-4.73 0.667-1.413 1.7-2.52 3.1-3.32 1.4-0.8 3.167-1.2 5.3-1.2v0c1.367 0 2.56 0.173 3.58 0.52 1.013 0.353 1.803 0.763 2.37 1.23 0.567 0.467 0.85 0.9 0.85 1.3v0c0 0.167-0.057 0.35-0.17 0.55-0.12 0.2-0.263 0.357-0.43 0.47-0.167 0.12-0.35 0.18-0.55 0.18v0c-0.3 0-0.64-0.167-1.02-0.5-0.387-0.333-0.92-0.66-1.6-0.98-0.687-0.313-1.663-0.47-2.93-0.47v0c-2.3 0-4.05 0.623-5.25 1.87-1.2 1.253-1.8 2.947-1.8 5.08v0 5.7c0 2.133 0.6 3.823 1.8 5.07 1.2 1.253 2.967 1.88 5.3 1.88v0c1.333 0 2.36-0.167 3.08-0.5 0.713-0.333 1.263-0.667 1.65-1 0.38-0.333 0.737-0.5 1.07-0.5v0c0.233 0 0.427 0.067 0.58 0.2 0.147 0.133 0.28 0.283 0.4 0.45 0.113 0.167 0.17 0.35 0.17 0.55v0c0 0.367-0.293 0.8-0.88 1.3-0.58 0.5-1.393 0.923-2.44 1.27-1.053 0.353-2.313 0.53-3.78 0.53zM43.1 0v0c-0.333 0-0.617-0.11-0.85-0.33-0.233-0.213-0.35-0.453-0.35-0.72v0-36.2c0-0.333 0.117-0.59 0.35-0.77 0.233-0.187 0.517-0.28 0.85-0.28v0c0.367 0 0.667 0.093 0.9 0.28 0.233 0.18 0.35 0.437 0.35 0.77v0 36.2c0 0.267-0.117 0.507-0.35 0.72-0.233 0.22-0.533 0.33-0.9 0.33zM60.9 0.3v0c-2.033 0-3.827-0.383-5.38-1.15-1.547-0.767-2.77-1.843-3.67-3.23-0.9-1.38-1.35-3.003-1.35-4.87v0-5.95c0-1.633 0.423-3.133 1.27-4.5 0.853-1.367 1.97-2.46 3.35-3.28 1.387-0.813 2.913-1.22 4.58-1.22v0c1.633 0 3.133 0.39 4.5 1.17 1.367 0.787 2.473 1.853 3.32 3.2 0.853 1.353 1.28 2.913 1.28 4.68v0c0 1.233-0.207 2.123-0.62 2.67-0.42 0.553-0.947 0.887-1.58 1-0.633 0.12-1.317 0.18-2.05 0.18v0h-11.6v2.1c0 2.133 0.767 3.823 2.3 5.07 1.533 1.253 3.45 1.88 5.75 1.88v0c1.367 0 2.417-0.167 3.15-0.5 0.733-0.333 1.3-0.667 1.7-1 0.4-0.333 0.767-0.5 1.1-0.5v0c0.233 0 0.433 0.067 0.6 0.2 0.167 0.133 0.3 0.29 0.4 0.47 0.1 0.187 0.15 0.363 0.15 0.53v0c0 0.333-0.29 0.75-0.87 1.25-0.587 0.5-1.413 0.923-2.48 1.27-1.067 0.353-2.35 0.53-3.85 0.53zM52.95-15.1v2.05h10.65c1.133 0 1.883-0.117 2.25-0.35 0.367-0.233 0.55-0.717 0.55-1.45v0c0-1.133-0.273-2.227-0.82-3.28-0.553-1.047-1.337-1.903-2.35-2.57-1.02-0.667-2.197-1-3.53-1v0c-1.267 0-2.41 0.3-3.43 0.9-1.013 0.6-1.82 1.4-2.42 2.4-0.6 1-0.9 2.1-0.9 3.3zM79.2 0.3v0c-1.933 0-3.567-0.543-4.9-1.63-1.333-1.08-2-2.737-2-4.97v0c0-1.767 0.49-3.133 1.47-4.1 0.987-0.967 2.353-1.643 4.1-2.03 1.753-0.38 3.78-0.57 6.08-0.57v0h2.7v-1.3c0-1.167-0.21-2.317-0.63-3.45-0.413-1.133-1.08-2.067-2-2.8-0.913-0.733-2.137-1.1-3.67-1.1v0c-1.067 0-1.94 0.107-2.62 0.32-0.687 0.22-1.24 0.453-1.66 0.7-0.413 0.253-0.737 0.38-0.97 0.38v0c-0.333 0-0.6-0.16-0.8-0.48-0.2-0.313-0.3-0.603-0.3-0.87v0c0-0.4 0.327-0.777 0.98-1.13 0.647-0.347 1.47-0.63 2.47-0.85 1-0.213 2-0.32 3-0.32v0c2.167 0 3.873 0.457 5.12 1.37 1.253 0.92 2.153 2.103 2.7 3.55 0.553 1.453 0.83 3.013 0.83 4.68v0 13.25c0 0.267-0.11 0.507-0.33 0.72-0.213 0.22-0.503 0.33-0.87 0.33v0c-0.333 0-0.617-0.11-0.85-0.33-0.233-0.213-0.35-0.453-0.35-0.72v0-2.45c-0.833 0.967-1.877 1.84-3.13 2.62-1.247 0.787-2.703 1.18-4.37 1.18zM79.55-1.9v0c1.167 0 2.293-0.293 3.38-0.88 1.08-0.58 1.97-1.297 2.67-2.15 0.7-0.847 1.05-1.637 1.05-2.37v0-3.7h-2.45c-1.633 0-3.167 0.09-4.6 0.27-1.433 0.187-2.6 0.607-3.5 1.26-0.9 0.647-1.35 1.67-1.35 3.07v0c0 1.567 0.467 2.707 1.4 3.42 0.933 0.72 2.067 1.08 3.4 1.08zM96.6 0v0c-0.333 0-0.617-0.11-0.85-0.33-0.233-0.213-0.35-0.453-0.35-0.72v0-21.55c0-0.3 0.117-0.543 0.35-0.73 0.233-0.18 0.517-0.27 0.85-0.27v0c0.367 0 0.66 0.09 0.88 0.27 0.213 0.187 0.32 0.43 0.32 0.73v0 2.55c0.4-0.667 0.917-1.293 1.55-1.88 0.633-0.58 1.39-1.053 2.27-1.42 0.887-0.367 1.897-0.55 3.03-0.55v0h1.8c0.3 0 0.55 0.107 0.75 0.32 0.2 0.22 0.3 0.497 0.3 0.83v0c0 0.333-0.1 0.607-0.3 0.82-0.2 0.22-0.45 0.33-0.75 0.33v0h-1.8c-1.133 0-2.227 0.29-3.28 0.87-1.047 0.587-1.897 1.42-2.55 2.5-0.647 1.087-0.97 2.397-0.97 3.93v0 13.25c0 0.267-0.117 0.507-0.35 0.72-0.233 0.22-0.533 0.33-0.9 0.33z" fill="#3c8ff5" fill-rule="nonzero" stroke="none" stroke-width="1" stroke-linecap="butt" stroke-linejoin="miter" stroke-miterlimit="10" stroke-dasharray="" stroke-dashoffset="0" font-family="none" font-weight="none" font-size="none" text-anchor="none" style="mix-blend-mode: normal" data-fill-palette-color="primary" opacity="1"></path><path xmlns="http://www.w3.org/2000/svg" d="M43.28 41.9v0c-1.567 0-2.957-0.377-4.17-1.13-1.22-0.747-2.113-1.637-2.68-2.67v0 2.45c0 0.267-0.107 0.507-0.32 0.72-0.22 0.22-0.513 0.33-0.88 0.33v0c-0.333 0-0.617-0.11-0.85-0.33-0.233-0.213-0.35-0.453-0.35-0.72v0-36.2c0-0.333 0.117-0.59 0.35-0.77 0.233-0.187 0.517-0.28 0.85-0.28v0c0.367 0 0.667 0.093 0.9 0.28 0.233 0.18 0.35 0.437 0.35 0.77v0 17.15c0.567-0.967 1.41-1.843 2.53-2.63 1.113-0.78 2.487-1.17 4.12-1.17v0c1.633 0 3.133 0.407 4.5 1.22 1.367 0.82 2.46 1.92 3.28 3.3 0.813 1.387 1.22 2.93 1.22 4.63v0 5.8c0 1.6-0.407 3.11-1.22 4.53-0.82 1.413-1.903 2.553-3.25 3.42-1.353 0.867-2.813 1.3-4.38 1.3zM43.03 39.6v0c1.2 0 2.3-0.333 3.3-1 1-0.667 1.81-1.533 2.43-2.6 0.613-1.067 0.92-2.183 0.92-3.35v0-5.8c0-1.167-0.307-2.267-0.92-3.3-0.62-1.033-1.43-1.883-2.43-2.55-1-0.667-2.117-1-3.35-1v0c-1.067 0-2.1 0.273-3.1 0.82-1 0.553-1.817 1.337-2.45 2.35-0.633 1.02-0.95 2.247-0.95 3.68v0 7.5c0 0.533 0.293 1.217 0.88 2.05 0.58 0.833 1.36 1.573 2.34 2.22 0.987 0.653 2.097 0.98 3.33 0.98zM66.03 41.9v0c-1.6 0-3.1-0.433-4.5-1.3-1.4-0.867-2.523-2-3.37-3.4-0.853-1.4-1.28-2.917-1.28-4.55v0-5.8c0-1.633 0.417-3.15 1.25-4.55 0.833-1.4 1.95-2.517 3.35-3.35 1.4-0.833 2.917-1.25 4.55-1.25v0c1.667 0 3.193 0.407 4.58 1.22 1.38 0.82 2.497 1.92 3.35 3.3 0.847 1.387 1.27 2.93 1.27 4.63v0 5.8c0 1.6-0.423 3.11-1.27 4.53-0.853 1.413-1.97 2.553-3.35 3.42-1.387 0.867-2.913 1.3-4.58 1.3zM66.03 39.6v0c1.267 0 2.4-0.333 3.4-1 1-0.667 1.81-1.533 2.43-2.6 0.613-1.067 0.92-2.183 0.92-3.35v0-5.8c0-1.167-0.3-2.267-0.9-3.3-0.6-1.033-1.407-1.883-2.42-2.55-1.02-0.667-2.163-1-3.43-1v0c-1.267 0-2.4 0.333-3.4 1-1 0.667-1.8 1.517-2.4 2.55-0.6 1.033-0.9 2.133-0.9 3.3v0 5.8c0 1.167 0.3 2.283 0.9 3.35 0.6 1.067 1.41 1.933 2.43 2.6 1.013 0.667 2.137 1 3.37 1zM79.73 41.9v0c-0.233 0-0.45-0.057-0.65-0.17-0.2-0.12-0.373-0.273-0.52-0.46-0.153-0.18-0.23-0.37-0.23-0.57v0c0-0.2 0.067-0.383 0.2-0.55v0l6.8-10.5-6.75-10.2c-0.033-0.067-0.073-0.15-0.12-0.25-0.053-0.1-0.08-0.183-0.08-0.25v0c0-0.233 0.077-0.443 0.23-0.63 0.147-0.18 0.33-0.33 0.55-0.45 0.213-0.113 0.42-0.17 0.62-0.17v0c0.167 0 0.333 0.033 0.5 0.1 0.167 0.067 0.283 0.167 0.35 0.3v0l6.25 9.6 6.3-9.55c0.1-0.167 0.227-0.283 0.38-0.35 0.147-0.067 0.303-0.1 0.47-0.1v0c0.2 0 0.41 0.05 0.63 0.15 0.213 0.1 0.397 0.24 0.55 0.42 0.147 0.187 0.22 0.413 0.22 0.68v0c0 0.133-0.067 0.3-0.2 0.5v0l-6.8 10.25 6.85 10.45c0.067 0.067 0.117 0.15 0.15 0.25 0.033 0.1 0.05 0.2 0.05 0.3v0c0 0.2-0.067 0.39-0.2 0.57-0.133 0.187-0.307 0.34-0.52 0.46-0.22 0.113-0.447 0.17-0.68 0.17v0c-0.133 0-0.283-0.033-0.45-0.1-0.167-0.067-0.283-0.167-0.35-0.3v0l-6.4-9.8-6.3 9.8c-0.1 0.133-0.223 0.233-0.37 0.3-0.153 0.067-0.313 0.1-0.48 0.1z" fill="#3c8ff5" fill-rule="nonzero" stroke="none" stroke-width="1" stroke-linecap="butt" stroke-linejoin="miter" stroke-miterlimit="10" stroke-dasharray="" stroke-dashoffset="0" font-family="none" font-weight="none" font-size="none" text-anchor="none" style="mix-blend-mode: normal" data-fill-palette-color="primary" opacity="1"></path></g></svg></g></svg></g></svg></g></svg></g><g transform="matrix(1,0,0,1,49.485161538461526,274.2747392538461)"><svg viewBox="0 0 160.1142923076923 145.10419475886383" height="145.10419475886383" width="160.1142923076923"><g><svg xmlns="http://www.w3.org/2000/svg" xmlns:xlink="http://www.w3.org/1999/xlink" version="1.1" x="8" y="0" viewBox="9.449999809265137 5.129500389099121 38.215999603271484 38.47850036621094" enable-background="new 0 0 58 52" xml:space="preserve" height="145.10419475886383" width="144.1142923076923" class="icon-icon-0" data-fill-palette-color="accent" id="icon-0"><path d="M19.417 17.596l7.597 3.497c0.999 0.46 2.634 0.46 3.632 0l6.411-2.951 10.514-5.014c-0.221-0.166-0.447-0.315-0.686-0.424L31.559 5.647c-1.498-0.69-3.951-0.69-5.45 0l-15.331 7.057c-0.245 0.112-0.477 0.267-0.703 0.438L19.417 17.596 19.417 17.596z" fill="#efefef" data-fill-palette-color="accent"></path><path d="M28.098 24.693c0-1.102-0.817-2.376-1.816-2.837L14.71 16.532c-0.01-0.004-0.018-0.012-0.028-0.017L9.45 14.104v17.992c0 1.65 1.227 3.564 2.726 4.255l15.331 7.058c0.136 0.063 0.288 0.113 0.438 0.164l0.152-9.367V24.693z" fill="#efefef" data-fill-palette-color="accent"></path><path d="M42.465 16.466c-0.021 0.011-0.039 0.026-0.062 0.037l-11.574 5.327c-1 0.459-1.816 1.736-1.816 2.836v7.836l0.023-0.001L29 43.608c0.216-0.065 0.421-0.142 0.61-0.229l15.33-7.058c1.498-0.69 2.726-2.604 2.726-4.255l-0.003-17.999L42.465 16.466z" fill="#efefef" data-fill-palette-color="accent"></path></svg></g></svg></g><g></g></svg></g><defs></defs></svg><rect width="152.71562715435752" height="247.2" fill="none" stroke="none" visibility="hidden"></rect></g></svg></g></svg>