<?xml version="1.0" encoding="UTF-8"?>
<svg id="Layer_1" data-name="Layer 1" xmlns="http://www.w3.org/2000/svg" viewBox="0 0 663.21 278.83">
  <defs>
    <style>
      .cls-1 {
        fill: #939598;
      }

      .cls-2 {
        fill: none;
        stroke: #808285;
        stroke-linecap: round;
        stroke-linejoin: round;
        stroke-width: 5px;
      }

      .cls-3 {
        fill: #1c75bc;
      }
    </style>
  </defs>
  <g>
    <path class="cls-3" d="m8.71,208.82H0v-9.55h8.71v-6.82c0-13.02,5.46-20.68,17.53-20.68,3.36,0,7.14.63,10.29,2.2v9.24c-3.25-1.79-5.56-2.31-8.19-2.31-9.03,0-9.03,6.19-9.03,12.39v5.98h15.33v9.55h-15.33v48.71h-10.6v-48.71Zm40.73-36.32c4.09,0,7.24,3.36,7.24,7.24,0,4.3-3.15,7.56-7.24,7.56-4.3,0-7.45-3.25-7.45-7.56,0-3.89,3.15-7.24,7.45-7.24Zm-5.46,26.77h10.71v58.26h-10.71v-58.26Z"/>
    <path class="cls-3" d="m60.99,199.52h10.5v9.97h.21c4.41-8.08,11.55-11.65,19.42-11.65,10.5,0,20.79,6.51,20.79,23.3v36.64h-10.71v-31.91c0-11.34-4.83-17.95-13.54-17.95-9.66,0-15.96,7.87-15.96,18.58v31.28h-10.71v-58.26Z"/>
    <path class="cls-3" d="m117.65,226.66c0-18.89,11.97-30.86,26.77-30.86,8.92,0,15.96,4.41,19.84,11.55h.21v-84.74h10.71v114.97c0,9.66.73,13.65,1.89,18.16h-10.6c-.94-3.78-1.36-6.72-1.36-9.66h-.21c-4.41,7.77-12.28,11.44-20.47,11.44-15.85,0-26.77-12.91-26.77-30.86Zm28.87,20.79c10.18,0,18.16-8.61,18.16-20.89s-7.98-20.78-18.16-20.78-17.74,8.82-17.74,20.89,7.45,20.79,17.74,20.79Z"/>
  </g>
  <g>
    <path class="cls-1" d="m207.17,256.06l-23.72-58.05h5.25c7.03,17.11,13.65,34.33,20.68,51.86h.21c6.93-17.42,13.54-34.96,20.47-51.86h5.25l-33.07,80.83h-4.09l9.03-22.78Z"/>
    <path class="cls-1" d="m233.88,226.98c0-18.06,11.76-30.65,28.66-30.65s28.55,12.6,28.55,30.65-11.76,30.55-28.55,30.55-28.66-12.6-28.66-30.55Zm28.66,26.24c13.86,0,23.3-10.81,23.3-26.24s-9.45-26.35-23.3-26.35-23.41,10.92-23.41,26.35,9.55,26.24,23.41,26.24Z"/>
    <path class="cls-1" d="m297.21,234.22v-36.22h4.83v34.12c0,16.48,9.13,21.1,17.01,21.1,12.81,0,19.52-12.18,19.52-22.15v-33.07h4.83v39.68c0,9.66.74,13.54,1.89,18.06h-4.93c-1.16-4.51-1.57-8.29-1.57-11.76h-.21c-4.62,9.66-12.28,13.54-20.57,13.54-9.55,0-20.78-5.25-20.78-23.3Z"/>
    <path class="cls-1" d="m353.27,198.01h4.62v12.81h.42c2.94-8.82,10.71-14.49,19.42-14.49,2.1,0,4.72.31,6.82,1.16v5.14c-1.89-.94-5.25-1.47-7.14-1.47-11.97,0-19.32,12.18-19.32,24.77v29.81h-4.83v-57.73Z"/>
  </g>
  <g>
    <path class="cls-3" d="m395.84,122.57h10.71v84.88h.21c4.41-8.08,11.34-11.65,19.11-11.65,10.5,0,20.89,6.51,20.89,23.3v36.64h-10.71v-31.91c0-11.34-4.83-17.95-13.54-17.95-9.66,0-15.96,7.87-15.96,18.58v31.28h-10.71V122.57Z"/>
    <path class="cls-3" d="m450.36,226.77c0-18.16,12.18-30.97,29.71-30.97s29.5,12.81,29.5,30.97-12.18,30.76-29.5,30.76-29.71-12.6-29.71-30.76Zm29.71,20.79c10.81,0,18.27-8.61,18.27-20.79s-7.45-20.89-18.27-20.89-18.47,8.61-18.47,20.89,7.45,20.79,18.47,20.79Z"/>
    <path class="cls-3" d="m513.91,197.48h10.5v9.97h.21c4.3-7.98,11.65-11.65,19-11.65s15.33,3.57,18.37,12.6h.21c5.56-9.45,13.02-12.6,20.05-12.6,10.08,0,20.68,6.82,20.68,23.3v36.64h-10.71v-31.91c0-11.44-4.83-17.95-13.02-17.95-9.03,0-15.43,7.87-15.43,18.58v31.28h-10.71v-31.91c0-11.55-4.83-17.95-12.91-17.95-9.13,0-15.54,7.87-15.54,18.58v31.28h-10.71v-58.26Z"/>
    <path class="cls-3" d="m606.53,226.87c0-18.06,12.07-31.07,28.87-31.07,12.7,0,27.29,7.66,27.29,30.02v3.46h-45.35c.74,11.65,8.61,18.69,18.69,18.69,8.29,0,14.38-5.04,17.32-12.28l9.87,3.88c-4.09,10.81-14.28,17.95-27.19,17.95-16.9,0-29.5-12.28-29.5-30.65Zm45.24-5.46c-.63-12.07-8.71-16.38-16.48-16.38-9.45,0-15.85,6.72-17.42,16.38h33.91Z"/>
  </g>
  <polyline class="cls-2" points="466.27 144.36 291.21 3.29 113.58 141.1"/>
  <line class="cls-2" x1="378.44" y1="56.55" x2="378.44" y2="3.29"/>
  <g>
    <line class="cls-2" x1="378.84" y1="2.5" x2="410.95" y2="2.5"/>
    <line class="cls-2" x1="410.95" y1="79.09" x2="410.95" y2="3.29"/>
  </g>
</svg>